# xmcd
#
# Track frame offsets:
#	150
#	16636
#	29472
#	41257
#	52819
#	66295
#	79786
#	93105
#
# Disc length: 1441 seconds
#
# Revision: 0
# Processed by: cddbd v1.5.2PL0 Copyright (c) Steve Scherf et al.
# Submitted via: audiograbber 1.83.01
#
DISCID=4f059f08
DTITLE=Hillcrest - Hillcrest 50
DYEAR=2000
DGENRE=Country
TTITLE0=Jaded Love - Phillip Norris
TTITLE1=Hat, Jeans and Cowboy Boots - Heather Smith
TTITLE2=Cowgirl Cute And Cowboy Crazy - Tony Wait
TTITLE3=Nothhing Doing - Babs Winn
TTITLE4=Dancing On The Radio - Didi Perry
TTITLE5=My Heart Just Told Me - Dale Mckay
TTITLE6=If The Music´s Any Faster - Kathy Cramer
TTITLE7=Tequila Bay - Mike Hanlon
EXTD=
EXTT0=
EXTT1=
EXTT2=
EXTT3=
EXTT4=
EXTT5=
EXTT6=
EXTT7=
PLAYORDER=
